<svg width="25" height="32" viewBox="0 0 25 32" fill="none" xmlns="http://www.w3.org/2000/svg">
<g clip-path="url(#clip0_2_183)">
<path fill-rule="evenodd" clip-rule="evenodd" d="M17.45 7H6.94999C6.12156 7 5.44999 7.67157 5.44999 8.5V25C5.45012 25.2726 5.59814 25.5236 5.83658 25.6557C6.07502 25.7878 6.36634 25.7801 6.59749 25.6356L12.2 22.1341L17.8034 25.6356C18.0345 25.7796 18.3255 25.787 18.5636 25.655C18.8018 25.523 18.9496 25.2723 18.95 25V8.5C18.95 7.67157 18.2784 7 17.45 7ZM17.45 8.5V19.1472L12.5966 16.1144C12.3533 15.9624 12.0448 15.9624 11.8016 16.1144L6.94999 19.1462V8.5H17.45ZM12.5966 20.6144C12.3533 20.4624 12.0448 20.4624 11.8016 20.6144L6.94999 23.6472V20.9153L12.2 17.6341L17.45 20.9153V23.6472L12.5966 20.6144Z" fill="#A14545"/>
</g>
<defs>
<clipPath id="clip0_2_183">
<rect width="24" height="24" fill="white" transform="translate(0.199989 4)"/>
</clipPath>
</defs>
</svg>
