<svg width="25" height="24" viewBox="0 0 25 24" fill="none" xmlns="http://www.w3.org/2000/svg">
<g clip-path="url(#clip0_2_170)">
<path fill-rule="evenodd" clip-rule="evenodd" d="M16.35 10.5C16.35 13.3995 13.9995 15.75 11.1 15.75C8.20051 15.75 5.85001 13.3995 5.85001 10.5C5.85001 7.6005 8.20051 5.25 11.1 5.25C13.9995 5.25 16.35 7.6005 16.35 10.5ZM22.1306 21.5306C21.99 21.6715 21.7991 21.7506 21.6 21.7506C21.4009 21.7506 21.2101 21.6715 21.0694 21.5306L16.3763 16.8366C12.9858 19.6572 7.97647 19.3124 5.00446 16.0538C2.03245 12.7952 2.14895 7.77538 5.26893 4.65816C8.3889 1.54094 13.4088 1.42888 16.6648 4.40377C19.9208 7.37866 20.2611 12.3883 17.4375 15.7762L22.1306 20.4694C22.2715 20.6101 22.3506 20.8009 22.3506 21C22.3506 21.1991 22.2715 21.3899 22.1306 21.5306ZM11.1 17.25C14.8279 17.25 17.85 14.2279 17.85 10.5C17.85 6.77208 14.8279 3.75 11.1 3.75C7.37208 3.75 4.35001 6.77208 4.35001 10.5C4.35414 14.2262 7.3738 17.2459 11.1 17.25Z" fill="#1C0D0D"/>
</g>
<defs>
<clipPath id="clip0_2_170">
<rect width="24" height="24" fill="white" transform="translate(0.600006)"/>
</clipPath>
</defs>
</svg>
