<svg width="25" height="32" viewBox="0 0 25 32" fill="none" xmlns="http://www.w3.org/2000/svg">
<g clip-path="url(#clip0_2_190)">
<path fill-rule="evenodd" clip-rule="evenodd" d="M12.4 11.5C9.91471 11.5 7.89999 13.5147 7.89999 16C7.89999 18.4853 9.91471 20.5 12.4 20.5C14.8853 20.5 16.9 18.4853 16.9 16C16.8974 13.5158 14.8842 11.5026 12.4 11.5ZM12.4 19C10.7431 19 9.39999 17.6569 9.39999 16C9.39999 14.3431 10.7431 13 12.4 13C14.0568 13 15.4 14.3431 15.4 16C15.4 17.6569 14.0568 19 12.4 19ZM20.65 16.2025C20.6537 16.0675 20.6537 15.9325 20.65 15.7975L22.0487 14.05C22.1975 13.8639 22.249 13.6183 22.1875 13.3881C21.9582 12.5262 21.6152 11.6986 21.1675 10.9272C21.0486 10.7225 20.8401 10.5859 20.605 10.5588L18.3812 10.3113C18.2887 10.2138 18.195 10.12 18.1 10.03L17.8375 7.80063C17.8101 7.56531 17.6732 7.35677 17.4681 7.23813C16.6964 6.79126 15.8689 6.44859 15.0072 6.21906C14.7769 6.15784 14.5312 6.20969 14.3453 6.35875L12.6025 7.75C12.4675 7.75 12.3325 7.75 12.1975 7.75L10.45 6.35406C10.2639 6.20533 10.0183 6.15383 9.78812 6.21531C8.92632 6.44503 8.09879 6.78802 7.32718 7.23531C7.12249 7.35417 6.98591 7.56268 6.95874 7.79781L6.71124 10.0253C6.61374 10.1184 6.51999 10.2122 6.42999 10.3066L4.20062 10.5625C3.9653 10.5899 3.75676 10.7268 3.63812 10.9319C3.19126 11.7036 2.84859 12.5311 2.61906 13.3928C2.55783 13.6231 2.60968 13.8688 2.75874 14.0547L4.14999 15.7975C4.14999 15.9325 4.14999 16.0675 4.14999 16.2025L2.75406 17.95C2.60532 18.1361 2.55382 18.3817 2.61531 18.6119C2.84461 19.4738 3.18762 20.3014 3.63531 21.0728C3.75416 21.2775 3.96267 21.4141 4.19781 21.4412L6.42156 21.6887C6.51468 21.7862 6.60843 21.88 6.70281 21.97L6.96249 24.1994C6.98987 24.4347 7.12682 24.6432 7.33187 24.7619C8.10359 25.2087 8.9311 25.5514 9.79281 25.7809C10.0231 25.8422 10.2688 25.7903 10.4547 25.6413L12.1975 24.25C12.3325 24.2537 12.4675 24.2537 12.6025 24.25L14.35 25.6488C14.5361 25.7975 14.7817 25.849 15.0119 25.7875C15.8738 25.5582 16.7014 25.2152 17.4728 24.7675C17.6775 24.6486 17.8141 24.4401 17.8412 24.205L18.0887 21.9813C18.1862 21.8888 18.28 21.795 18.37 21.7L20.5994 21.4375C20.8347 21.4101 21.0432 21.2732 21.1619 21.0681C21.6087 20.2964 21.9514 19.4689 22.1809 18.6072C22.2422 18.3769 22.1903 18.1312 22.0412 17.9453L20.65 16.2025ZM19.1406 15.5931C19.1566 15.8641 19.1566 16.1359 19.1406 16.4069C19.1294 16.5924 19.1876 16.7755 19.3037 16.9206L20.6341 18.5828C20.4814 19.0679 20.286 19.5385 20.05 19.9891L17.9312 20.2291C17.7467 20.2495 17.5764 20.3377 17.4531 20.4766C17.2727 20.6795 17.0805 20.8717 16.8775 21.0522C16.7387 21.1754 16.6505 21.3458 16.63 21.5303L16.3947 23.6472C15.9442 23.8833 15.4736 24.0787 14.9884 24.2313L13.3253 22.9009C13.1922 22.7946 13.0269 22.7367 12.8566 22.7369H12.8116C12.5405 22.7528 12.2688 22.7528 11.9978 22.7369C11.8123 22.7257 11.6292 22.7838 11.4841 22.9L9.81718 24.2313C9.33206 24.0786 8.86146 23.8831 8.41093 23.6472L8.17093 21.5312C8.15045 21.3467 8.06226 21.1764 7.92343 21.0531C7.72047 20.8727 7.52827 20.6805 7.34781 20.4775C7.22456 20.3387 7.0542 20.2505 6.86968 20.23L4.75281 19.9937C4.51674 19.5433 4.32128 19.0727 4.16874 18.5875L5.49906 16.9244C5.61522 16.7793 5.67335 16.5962 5.66218 16.4106C5.64624 16.1396 5.64624 15.8679 5.66218 15.5969C5.67335 15.4113 5.61522 15.2282 5.49906 15.0831L4.16874 13.4172C4.32139 12.9321 4.51685 12.4615 4.75281 12.0109L6.86874 11.7709C7.05326 11.7505 7.22362 11.6623 7.34687 11.5234C7.52733 11.3205 7.71953 11.1283 7.92249 10.9478C8.06188 10.8245 8.15043 10.6537 8.17093 10.4688L8.40624 8.35281C8.85672 8.11674 9.32733 7.92128 9.81249 7.76875L11.4756 9.09906C11.6207 9.21522 11.8038 9.27336 11.9894 9.26219C12.2604 9.24625 12.5321 9.24625 12.8031 9.26219C12.9887 9.27336 13.1718 9.21522 13.3169 9.09906L14.9828 7.76875C15.4679 7.9214 15.9385 8.11685 16.3891 8.35281L16.6291 10.4688C16.6495 10.6533 16.7377 10.8236 16.8766 10.9469C17.0795 11.1273 17.2717 11.3195 17.4522 11.5225C17.5754 11.6613 17.7458 11.7495 17.9303 11.77L20.0472 12.0053C20.2833 12.4558 20.4787 12.9264 20.6312 13.4116L19.3009 15.0747C19.1837 15.221 19.1255 15.406 19.1378 15.5931H19.1406Z" fill="#A14545"/>
</g>
<defs>
<clipPath id="clip0_2_190">
<rect width="24" height="24" fill="white" transform="translate(0.399994 4)"/>
</clipPath>
</defs>
</svg>
