<svg width="25" height="32" viewBox="0 0 25 32" fill="none" xmlns="http://www.w3.org/2000/svg">
<g clip-path="url(#clip0_2_176)">
<path fill-rule="evenodd" clip-rule="evenodd" d="M12.8 12.25C10.7289 12.25 9.05 13.9289 9.05 16C9.05 18.0711 10.7289 19.75 12.8 19.75C14.8711 19.75 16.55 18.0711 16.55 16C16.55 13.9289 14.8711 12.25 12.8 12.25ZM12.8 18.25C11.5574 18.25 10.55 17.2426 10.55 16C10.55 14.7574 11.5574 13.75 12.8 13.75C14.0426 13.75 15.05 14.7574 15.05 16C15.05 17.2426 14.0426 18.25 12.8 18.25ZM23.3 9.25H2.3C1.88578 9.25 1.55 9.58579 1.55 10V22C1.55 22.4142 1.88578 22.75 2.3 22.75H23.3C23.7142 22.75 24.05 22.4142 24.05 22V10C24.05 9.58579 23.7142 9.25 23.3 9.25ZM18.9547 21.25H6.64531C6.13368 19.5197 4.78033 18.1663 3.05 17.6547V14.3453C4.78033 13.8337 6.13368 12.4803 6.64531 10.75H18.9547C19.4663 12.4803 20.8197 13.8337 22.55 14.3453V17.6547C20.8197 18.1663 19.4663 19.5197 18.9547 21.25ZM22.55 12.7534C21.6504 12.3666 20.9334 11.6496 20.5466 10.75H22.55V12.7534ZM5.05343 10.75C4.66661 11.6496 3.94959 12.3666 3.05 12.7534V10.75H5.05343ZM3.05 19.2466C3.94959 19.6334 4.66661 20.3504 5.05343 21.25H3.05V19.2466ZM20.5466 21.25C20.9334 20.3504 21.6504 19.6334 22.55 19.2466V21.25H20.5466Z" fill="#A14545"/>
</g>
<defs>
<clipPath id="clip0_2_176">
<rect width="24" height="24" fill="white" transform="translate(0.799995 4)"/>
</clipPath>
</defs>
</svg>
